<svg id="1efac8d1-9d2e-4d32-9b85-71c0a92b14c5" data-name="Layer 1" xmlns="http://www.w3.org/2000/svg" width="1142.67" height="372.18" viewBox="0 0 1142.67 372.18"><defs><style>.\38 6948510-0906-4c44-beba-1b87de929700{fill:#59595c;}.\34 799bffd-289d-4bfe-a351-763f3bd50454{fill:#808083;}.\39 18792a0-927d-46c7-b13e-1adb5991688f{fill:#ea5625;}</style></defs><title>allstar-logo-color</title><g id="40f7538f-effa-4f95-a605-48430a918f2a" data-name="&lt;Group&gt;"><path id="6cbef442-6143-4019-9e1f-771962c45e57" data-name="&lt;Compound Path&gt;" class="86948510-0906-4c44-beba-1b87de929700" d="M440.44,137.46h6.35v-2.6c0-24-13.57-32-32-32-22.51,0-40.69,14.14-40.69,14.14L362.52,96.48s21.06-17.32,54.54-17.32c36.93,0,57.72,20.2,57.72,57.14v92.35h-26V214.8a109.05,109.05,0,0,1,.58-11.54h-.58S437,232.11,402.05,232.11c-25.1,0-49.63-15.29-49.63-44.45C352.42,139.48,415.91,137.46,440.44,137.46ZM408.12,209.6c23.66,0,39-24.82,39-46.46v-4.62h-7.21c-21.07,0-59.16,1.45-59.16,27.71C380.7,198.06,389.94,209.6,408.12,209.6Z"/><path id="5f0cd6b1-819f-4ab9-8e3a-a118e7975b52" data-name="&lt;Compound Path&gt;" class="86948510-0906-4c44-beba-1b87de929700" d="M514.88,24.91h28v159c0,17.6,6.92,20.77,15.59,20.77a44.3,44.3,0,0,0,4.9-.29v24.82a78.21,78.21,0,0,1-9.24.58c-15.88,0-39.25-4.33-39.25-41Z"/><path id="7bbb5b71-3e2c-40ba-afd2-7e7075ef01a2" data-name="&lt;Compound Path&gt;" class="86948510-0906-4c44-beba-1b87de929700" d="M591.35,24.91h28v159c0,17.6,6.92,20.77,15.58,20.77a44.22,44.22,0,0,0,4.9-.29v24.82a78.14,78.14,0,0,1-9.24.58c-15.87,0-39.25-4.33-39.25-41Z"/><g id="53bf6bd2-1480-4e24-9493-2a56bf7104a1" data-name="&lt;Group&gt;"><path id="0f030266-515c-42db-ab26-c7c9cc33f751" data-name="&lt;Compound Path&gt;" class="4799bffd-289d-4bfe-a351-763f3bd50454" d="M671.29,190.85s16.44,17,41.84,17c12.12,0,24.23-6.35,24.23-18.19,0-26.84-75-21.35-75-69,0-26.54,23.66-41.56,52.81-41.56,32,0,47,16.16,47,16.16l-11.25,21.07s-13-13-36.07-13c-12.12,0-24,5.19-24,17.89,0,26.27,75,20.49,75,68.4,0,24.24-20.79,42.42-52.81,42.42-35.79,0-55.42-21.36-55.42-21.36Z"/><path id="582b3570-c8eb-48d8-9834-c10656611a16" data-name="&lt;Compound Path&gt;" class="4799bffd-289d-4bfe-a351-763f3bd50454" d="M804.89,107.16h-19V84.65h19.9V42.52h27.13V84.65h35.2v22.52h-35.2v64.93c0,29.14,20.49,32.89,31.16,32.89a33.48,33.48,0,0,0,6.64-.58v24.82a76.2,76.2,0,0,1-9.81.58c-18.75,0-56-5.78-56-54.54Z"/><path id="937d7861-b481-4c58-8363-b6b77670879e" data-name="&lt;Compound Path&gt;" class="4799bffd-289d-4bfe-a351-763f3bd50454" d="M978.31,137.46h6.35v-2.6c0-24-13.57-32-32-32-22.51,0-40.68,14.14-40.68,14.14L900.4,96.48s21.07-17.32,54.54-17.32c36.94,0,57.71,20.2,57.71,57.14v92.35h-26V214.8a109.38,109.38,0,0,1,.58-11.54h-.58s-11.83,28.86-46.75,28.86c-25.1,0-49.64-15.29-49.64-44.45C890.29,139.48,953.78,137.46,978.31,137.46ZM946,209.6c23.67,0,39-24.82,39-46.46v-4.62h-7.22c-21.05,0-59.15,1.45-59.15,27.71C918.57,198.06,927.81,209.6,946,209.6Z"/><path id="0f7a4594-aeb4-4ae2-9729-399bf28d5799" data-name="&lt;Compound Path&gt;" class="4799bffd-289d-4bfe-a351-763f3bd50454" d="M1054.49,82.63h27.13V108a104.93,104.93,0,0,1-.58,11h.58c6.64-21.36,23.67-38.09,46.18-38.09a50.2,50.2,0,0,1,7.21.57v27.71a40.42,40.42,0,0,0-8.08-.86c-17.88,0-34.34,12.69-41,34.34-2.6,8.36-3.47,17.31-3.47,26.26v59.73h-28Z"/></g><g id="24675f6e-0304-41b2-b22d-a897caf40ee1" data-name="&lt;Group&gt;"><path id="5a9b78ac-a607-4287-b9f9-d638a554f9e9" data-name="&lt;Path&gt;" class="4799bffd-289d-4bfe-a351-763f3bd50454" d="M322.71,221.06a12.83,12.83,0,0,1-9.59,15.38,12.67,12.67,0,0,1-7.87-.7c3.92,5.58,18.67,14.7,55.78,16.24-54.66,11.9-56.46,3.38-68.61.59-32.05,15.13-81.87,11.36-81.87,11.36L260,247.17s-47.12-4.41-55.17-14.66c54.64,5.5,70.29-5.28,69.36-6-12.25-9.89-23.59-46.25-23.94-47.37l.05.05c1.49,1.91,28.17,36,47.66,48.52-.09-.26-.16-.54-.23-.82a12.8,12.8,0,1,1,24.93-5.81Z"/><path id="17fc949c-94d5-4515-8f89-08fff3d8c525" data-name="&lt;Path&gt;" class="918792a0-927d-46c7-b13e-1adb5991688f" d="M317.15,36.66c-5.56,55.66-14.22,54.75-20.65,65.42C301,137.27,282,183.46,282,183.46l-.65-52.23s-18.76,43.45-31,47.92c22.12-50.29,16.69-68.47,15.71-67.82-13.4,8.73-52.47,8.14-52.47,8.14s42.57-15.27,61-30.37l-.86,0a12.81,12.81,0,1,1,10.74-4.36C291,82.69,304.22,71.48,317.15,36.66Z"/><path id="b18f5d36-26f5-4450-982a-2ef2ece76377" data-name="&lt;Path&gt;" class="4799bffd-289d-4bfe-a351-763f3bd50454" d="M227.42,90.64l-49.85-15.5s35.54,31.25,36,44.29c-41-36.57-60-37-59.65-35.9C158.1,99,145.45,136,145.45,136a1.45,1.45,0,0,0,0-.17c-.09-3.08-1.64-45.86-10-67.22-.09.28-.18.54-.28.82a12.85,12.85,0,1,1-.84-11.58c.11-6.81-6.47-22.87-35.59-45.93,51.21,22.5,47.68,30.46,55.85,39.86C188.84,58.21,226.27,89.66,227.42,90.64Z"/><path id="76b154cc-ed75-4010-9afa-fc3d006bd122" data-name="&lt;Path&gt;" class="4799bffd-289d-4bfe-a351-763f3bd50454" d="M204.84,232.48v0c-.77,1.14-25.53,37.71-31.46,60.38.25-.16.47-.33.72-.49A12.8,12.8,0,1,1,169.74,310a12.6,12.6,0,0,1-1.77-7.72c-4.11,5.46-8.21,22.31,1.78,58.07C141.55,312,149.09,307.67,148,295.26c-23.92-25.42-35.73-72.84-36.08-74.31l31.21,41.84s-10.36-46.19-3.1-57c11.67,53.66,26.74,65.21,27.16,64.11C172.82,255.18,203.86,233.17,204.84,232.48Z"/><path id="7f2d507a-3ab8-4acf-8fa2-bcda1e6cdcd7" data-name="&lt;Path&gt;" class="4799bffd-289d-4bfe-a351-763f3bd50454" d="M92,156.35c1.15-.68,40.86-24.08,53.23-20.56-47.43,27.68-53.75,45.6-52.58,45.65,15.66.79,46,23.34,47.21,24.23-1.24-.35-43.74-12.63-67.15-11.25l.68.52a12.83,12.83,0,1,1-11.27-2.78c-6.44-2.2-23.74-.91-54.68,19.65C44.7,170.07,51.19,175.9,62.64,171c17.06-31.09,59.56-57.3,59.56-57.3Z"/></g></g></svg>